<svg width="116" height="100" viewBox="0 0 116 100" fill="none" xmlns="http://www.w3.org/2000/svg">
<path d="M114.463 36.568H79.7958C78.8954 36.568 78.2268 35.7329 78.4218 34.8509L85.7067 1.72345C86.0219 0.294183 84.2277 -0.612914 83.2707 0.491669L52.4003 36.0844C52.1335 36.3923 51.745 36.5697 51.3382 36.5697H12.8061C11.6139 36.5697 10.962 37.9638 11.724 38.886L29.6352 60.5275C30.0754 61.0597 30.0671 61.8362 29.6136 62.3584L0.357267 96.0884C-0.663185 97.2649 0.68908 98.9887 2.06802 98.2691L42.1191 77.354C42.706 77.0477 43.428 77.1933 43.8515 77.7038L61.8812 99.4892C62.6298 100.393 64.0855 100.038 64.3389 98.8917L72.4309 62.0956C72.5209 61.6873 72.786 61.3392 73.1562 61.1467L115.113 39.2358C116.42 38.553 115.937 36.5697 114.463 36.5697V36.568Z" fill="black"/>
</svg>
