<?xml version="1.0" encoding="UTF-8"?>
<svg id="_Слой_1" xmlns="http://www.w3.org/2000/svg" version="1.1" viewBox="0 0 105.57 100">
  <!-- Generator: Adobe Illustrator 29.7.1, SVG Export Plug-In . SVG Version: 2.1.1 Build 8)  -->
  <defs>
    <style>
      .st0 {
        fill: #fff;
      }
    </style>
  </defs>
  <path class="st0" d="M102.38,42.5h-31.01c-.81,0-1.4-.75-1.23-1.54l6.52-29.63c.29-1.28-1.32-2.09-2.18-1.1l-27.61,31.83c-.24.28-.59.44-.95.44H11.46c-1.06,0-1.65,1.24-.97,2.08l16.02,19.36c.39.47.38,1.17-.02,1.64L.32,95.74c-.91,1.06.3,2.59,1.53,1.95l35.82-18.71c.53-.28,1.17-.14,1.55.31l16.13,19.49c.67.81,1.97.49,2.2-.54l7.24-32.92c.08-.37.32-.68.65-.85l37.53-19.6c1.17-.61.73-2.39-.58-2.39h0Z"/>
</svg>