<?xml version="1.0" encoding="UTF-8"?>
<svg id="_Слой_1" data-name="Слой_1" xmlns="http://www.w3.org/2000/svg" version="1.1" viewBox="0 0 772.63 922.24">
  <!-- Generator: Adobe Illustrator 29.7.1, SVG Export Plug-In . SVG Version: 2.1.1 Build 8)  -->
  <defs>
    <style>
      .st0 {
        fill: #e31563;
      }

      .st1 {
        fill: #ffd400;
      }

      .st2 {
        fill: #fff;
      }

      .st3 {
        fill: #0e0709;
      }
    </style>
  </defs>
  <g id="_x37_NP34C">
    <g>
      <path class="st3" d="M680.1,460.74c27.13,3.42,52.09,29.5,57.2,55.8,11.81,60.78-47.6,102.67-93.68,127.72-11.05,6.01-26.83,11.63-36.71,18.29-4.72,3.18-4.97,4.79-4.22,10.61,1.38,10.78,6.61,24.63,8.62,36.37,7.22,42.05,11.75,119.38-4.85,158.57-15.82,37.34-46.61,47.23-84.37,51.63-34.27,3.99-92.5,5.81-121.4-14.57-3.14-2.21-5.08-6.56-9.61-6.5-2.25.03-11.41,8.7-15.17,10.89-33.06,19.25-127.18,15.93-161.98.37-51.75-23.13-50.41-96.86-49.36-144.72.12-5.59,4.72-20.41-3.41-21.5-7.09-.95-18.6,1.65-27.1,1.09-34.05-2.25-67.34-30.48-69.44-65.56-3.71-62.12,75.77-123.34,129.31-140.66,2.49-1.04,2.39-4.42.08-5.74-8.43-3.58-17.1-7.43-25.08-11.92-5.36-3.02-25.31-17.74-28.83-17.73s-18.39,9.58-22.41,12.14c-10.87,6.93-20.92,15.06-31.19,22.81-6.77,3.51-14.37.93-12.69-7.65,2.47-12.64,36.88-32.86,47.72-40.32.66-.63,1.44-1.45,1.64-2.33.58-2.56-10.66-14.12-12.96-17.19-2.94-3.94-12.48-19.47-15.55-20.45-7.41-2.37-29.38,7.02-38.58,7.56-11.53.68-12.57-9.05-4.43-14.47,4.78-3.17,31.9-11.37,32.83-14.22l-14.86-46.84c-3.87-2.33-36.42,2.81-43.23,3.81s-17.64,5.53-23.33,1.75c-3.45-2.29-3.84-5.53-1.87-8.95,7.24-12.58,46.61-14.34,60.28-17.72,2.01-.5,4.26-.81,4.94-3.06.33-12.31-1.43-24.51-.85-36.85,1.22-25.69,7.5-51.52,16.57-75.43,2.01-5.29,7.27-13.48,7.54-18.51.38-7.12-5.99-18.27-8.34-25.76-10.67-34.01-11.01-72.67,1.25-106.28,16.57-45.44,38.37-44.43,82.35-37.32,17.73,2.87,34.28,8.03,51.18,13.82,6.27,2.15,16.49,7.7,22.22,8.78,11.13,2.09,27.79-4.89,39.25-7.28,29.19-6.09,58.72-9.85,88.29-13.71,4.62-6.3,7.74-14.05,12.31-20.69,7.49-10.88,20.73-24.52,32.73-30.27,32.77-15.68,66,2.85,87.17,27.93,10.14-5.8,21.02-10.67,31.99-14.78,19.55-7.32,63.77-20.96,83.08-14.04,27.14,9.73,38.5,68.81,41.93,94.07,43.47,20.82,41.37,75.91,17.85,111.49,7.29,16.9,14.38,34.26,18.34,52.32.87,3.96,3.69,24.94,4.55,25.94,2.59,3.01,12.64.29,16.22.21,11.33-.28,38.06-1.61,47.51,1.57,9.3,3.13,14.13,11.58,2.07,15.01-14.18,4.03-35.86,1.2-51.41,3.59-16.88,2.59-11.09,5.28-11.59,18.42-.23,6.13-2.88,25.74-.11,30.02s13.69,3.75,18.43,4.57c6.93,1.21,30.95,4.23,34.66,8.62,2.59,3.08,3.22,6.84-.64,9.11-9.48,5.57-38.53-.03-50.92,1.08-4.73.43-6.35,1.3-8.24,5.76-3.12,7.35-5.35,18.61-8.19,26.81-3.16,9.14-8.34,10.55,2.6,16.35,10.49,5.56,41.74,15.13,47.37,22.63,7.39,9.83-2.64,15.3-12.24,13.23l-50.43-17.42c-7.99-.16-8.85,9.68-5.83,9.68,4.6,0,10.68-.54,15,0ZM429.36,27c-50.2,6.8-98.34,162.79-8.39,154.61,7.93-.72,34.01-7.42,37.36-14.64,4.69-10.13-4.61-10.9-10.65-14.81-36.43-23.63-10.85-77.23,29.7-64.7,4.29,1.33,14.03,8.11,15.78,8.28,7.8.77,6.87-9.19,5.22-14.28-4.79-14.78-28.37-43.89-42.4-50.6-8.37-4-17.39-5.12-26.62-3.87ZM630.6,95.74c-2.08-17.4-8.36-48.79-21.46-61.05-7.87-7.37-21.8-4.5-31.75-2.66-23.18,4.27-44.56,15.18-65.79,24.72l14.03,31.46c8.18,2.85,16.87,3.81,24.95,7.05,7.33,2.94,12.94,7.69,19.77,11.31,19.9-4.57,39.38-12.54,60.25-10.82ZM355.59,86.74c-30.13,3.32-61.02,7.58-90.41,15.07-6.64,1.69-16.9,6.73-23.19,6.82-7.48.11-28.63-12.01-37.41-15.38-20.61-7.9-55.31-18.17-77.03-14.06-24.59,4.65-31.25,57.06-30,77.09.43,6.81,5.55,34.73,10.49,38.52,2.81,2.16,5.08-3.02,8.82-4.3,6.95-2.38,13.03,2.47,12.68,9.59s-16.09,31.68-20.12,40.97c-12.96,29.87-22.47,73.68-19.86,106.21.2,2.44,1.03,8.89,3.26,9.8,9.54,1.99,32.3-.85,40.09,4.6,2.91,2.04,3.16,8.07,1.14,11.02-4.89,7.16-36.37,1.03-38.32,6.68-1.7,4.93,9.81,37.39,13.93,40.8,5.78,4.78,30.05-7.59,33.54,3.54,2.97,9.47-22.59,12.08-23.46,16.66-.77,4.08,19.81,30.31,24.79,31.92,9.9,3.19,26.97-14,36.03-6.02,10.64,9.38-15,17.5-15,21.97,0,2.8,11.24,9.41,14.01,11.02,72.73,42.13,209.92,43.41,291.23,30.19,31.2-5.07,74.12-15.15,101.81-30.19,1.45-.79,6.35-3.39,7.03-4.23,2.09-2.59,3.39-16.38,5.77-21.97,5.28-12.4,18.51-24.73,32.13-26.87,6.89-1.09,11.4.16,17.7.5,3.04.16,4.55-2.63,3.22-4.83-1.41-2.33-18.99-3.42-14.1-14.86,4.54-10.62,22.05-1.19,28.8-5.19,2.5-1.48,11.54-24.11,12.72-28.29.78-2.78,2.92-9.57,1.28-11.85-1.49-2.08-22.03-1.52-20.6-12.37,1.11-8.46,20.1-5.63,25.82-8.79.66-.64,2.14-11.27,2.26-13.24.26-4.14.68-24.31-.2-26.88-.53-1.54-2.73-2.47-4.29-2.52-7.68-.23-38.58,13.72-39.54-1.72-.89-14.32,38.7-14.84,40.84-21.09,1.97-5.77-1.8-22.78-3.33-29.35-2.56-11.01-6.82-21.38-10.52-31.99-12.88,12.59-26.94,25.59-44.77,30.71-28.61,8.22-51.32-3.48-69.73-24.7-2.89-3.34-11.91-17.4-14.51-18.49-3.26-1.37-7.9-.07-11.46-.54-12.12-1.58-30.66-10-39.54-18.46-3.37-3.21-7.97-12.01-11.94-13.11-3.16-.87-13.08,5-16.77,6.35-8.08,2.94-18.25,6.52-26.78,7.22-70.61,5.77-84.49-60.89-66.49-115.98ZM476.47,107.86c-13.42-8.62-29.59.1-27.91,16.39.48,4.68,8.7,16.19,13.08,13.06.77-.55,6.22-14.4,7.78-17.25,1.37-2.52,7.95-10.64,7.05-12.21ZM492.95,122.09c-22.37,21.11-15.93,62.28,12.97,74.83,44.84,19.46,80.86-39.01,51.19-72.19-15.88-17.75-47.01-18.82-64.16-2.64ZM639.18,221.32c34.22-36.44,50.39-107.98-21.07-103.57-6.54.4-30.28,5.05-32.99,11.01-1.25,2.75.8,12.81,2.6,15.36s7.4,3.95,10.2,5.8c30.23,19.92,17.33,62-19.7,58.7-5.04-.45-9.19-3.07-14.67-1.41-1.74.53-10.85,7.04-11.48,8.57-2.47,5.95,15.38,21.09,20.23,23.77,25.59,14.15,49.02.8,66.89-18.22ZM578.69,191.64c12.73,4.03,24.43-8.29,15.91-20.41-1.48-2.1-5.98-6.95-7.82-2.8.04,4.16-9.58,21.05-8.1,23.21ZM664.79,600.54c4.23,2.48,18.4-10.12,21.82-13.29,20.38-18.86,35.85-44.59,26.02-73.05-5.99-17.33-23.35-30.02-41.55-31.44-6.48-.51-14.08,2.25-19.08,1.16-6.56-1.43-6.96-5.8-11.4-9.69-10.78-9.45-23-7.72-31.53,3.49-8.21,10.77-2.25,16.3-3.45,26.55-.34,2.95-2.53,4.77-1.62,7.46l60.78,88.81ZM591.83,640.49c2.91,2.93,8.89-.56,12.12-1.9,10.92-4.51,26.15-12.52,36.31-18.69,2.34-1.42,5.64-2.58,5.44-5.66l-61.62-90.49c-1.02-1.21-2.53-1.21-3.98-1.12-2.25.14-15.83,7.14-19.52,8.58-5.65,2.21-16.16,4.69-20.7,7.3-1.18.68-2.36,1.02-2.34,2.71.01,1.26,12.2,17.11,14.08,19.98,12.24,18.66,22.98,38.48,32.15,58.85,1.4,3.1,7.17,19.53,8.06,20.43ZM401.83,787.5c1.1,1.11,3.67,1.14,5.22,1.28,15.78,1.35,32.32-.81,48-1.08,38.37-.68,76.89-.6,115.03-3.97,5.51-.49,13.82-1.06,18.99-2.01,1.36-.25,2.9-1.27,3.59-2.41,2.3-3.86.52-30.65-.07-37.05-4.8-51.84-23.04-106.08-49.19-150.81-4.2-7.18-25.28-40.65-30.82-43.18-3.03-1.38-28.78,3.3-30.05,5.16-1.94,2.84-3.55,15.42-5.45,20.3-25.59,65.54-136.72,69.23-170.28,8.33-2.51-4.55-7.8-23.64-8.87-24.38-1.01-.69-4.5-1.58-5.91-1.84-5.91-1.09-18.22-2.75-24.07-3.01-1.66-.07-3.19-.02-4.65.87s-11.86,15.79-13.72,18.52c-39.61,58.19-59.71,128.73-62.01,198.99-.26,7.8-.61,11.22,7.65,12.43,33.05,4.84,68.64,2.17,101.85,5.15,10.03-1.94,81.09,2.66,83.65-.66,2.99-3.9,3.14-14.96,11.39-14.48,7.28.42,7.26,11.39,9.74,13.87ZM231.33,551.92c-2.63-.09-12.26,2.66-15.5,3.55-18.72,5.13-40.5,15.69-56.76,26.24-3.48,2.26-14.56,7.93-13.33,12.3,1.32,4.7,38.27,29.41,43.89,35.19l3.34.45c11.74-25.52,24.09-50.79,40.19-73.88.92-1.84.5-3.78-1.83-3.86ZM456.43,555.96c-6.6.27-14.54,2.26-21.34,2.76-27.99,2.06-55.07,1.89-83,1.02-4.21-.13-30.23-1.45-31.54-.57-4.26,2.89,6.47,18.89,9.08,22.03,28.91,34.72,97.99,33.77,123.8-4.14,3.17-4.66,13.64-21.53,3-21.1ZM124.31,608.88c-6.92,1.93-28.01,34.15-31.2,41.88-17.86,43.19,13.56,74.85,56.97,70.97,4.01-.36,15.73-2.96,18.47-5.53,2.38-2.23,4.43-18.75,5.54-23.46,2.28-9.73,8.41-26.13,9.29-34.78.15-1.47.47-2.84-.2-4.26l-55.63-44.44c-1.03-.69-2.08-.7-3.24-.37ZM583.4,805.03c-21.89.79-44.31,4.16-66.26,4.75l-111.84,2.16c-2.18.75-2.48,2.21-2.75,4.25-1.3,9.8-.84,48.38,1.99,57.1,3.95,12.17,16.72,18.79,28.42,21.58,29.14,6.96,107.99,5.71,132.97-11.31,11.45-7.8,19.3-21.86,22.93-35.07,2.04-7.4,7.16-35.57,3.64-41.16-2.14-3.4-5.84-2.43-9.1-2.31ZM192.29,806.93c-4.65,1.39-3.87,10.51-3.68,14.3,1.13,23.47,9.77,53.39,31.32,65.67,25.65,14.63,100.99,15.48,129.67,8.34,16.17-4.03,28.49-12.03,30.03-29.97.93-10.75,1.39-37.86.01-48.09-.39-2.88-1.31-3.89-4-5-51.89-.77-103.79-.65-155.54-3.46-6.69-.36-22.28-3.45-27.82-1.8Z"/>
      <path class="st2" d="M355.59,86.74c-18,55.09-4.12,121.75,66.49,115.98,8.53-.7,18.7-4.28,26.78-7.22,3.7-1.35,13.62-7.22,16.77-6.35,3.97,1.1,8.57,9.9,11.94,13.11,8.88,8.46,27.42,16.88,39.54,18.46,3.56.46,8.2-.83,11.46.54,2.6,1.09,11.62,15.16,14.51,18.49,18.41,21.22,41.11,32.92,69.73,24.7,17.83-5.12,31.89-18.12,44.77-30.71,3.71,10.61,7.96,20.97,10.52,31.99,1.53,6.58,5.3,23.58,3.33,29.35-2.13,6.25-41.73,6.76-40.84,21.09.96,15.44,31.86,1.48,39.54,1.72,1.56.05,3.77.98,4.29,2.52.88,2.57.47,22.73.2,26.88-.13,1.96-1.6,12.59-2.26,13.24-5.71,3.16-24.71.33-25.82,8.79-1.43,10.85,19.11,10.29,20.6,12.37,1.64,2.29-.5,9.08-1.28,11.85-1.18,4.17-10.22,26.8-12.72,28.29-6.76,4.01-24.26-5.43-28.8,5.19-4.89,11.44,12.69,12.53,14.1,14.86,1.33,2.2-.17,4.99-3.22,4.83-6.29-.34-10.8-1.59-17.7-.5-13.61,2.14-26.85,14.47-32.13,26.87-2.38,5.59-3.68,19.38-5.77,21.97-.68.84-5.58,3.45-7.03,4.23-27.69,15.04-70.62,25.12-101.81,30.19-81.31,13.21-218.49,11.94-291.23-30.19-2.77-1.6-14.01-8.21-14.01-11.02,0-4.47,25.64-12.58,15-21.97-9.05-7.98-26.12,9.21-36.03,6.02-4.99-1.61-25.56-27.83-24.79-31.92.86-4.58,26.43-7.19,23.46-16.66-3.49-11.13-27.76,1.24-33.54-3.54-4.12-3.41-15.63-35.87-13.93-40.8,1.95-5.65,33.43.48,38.32-6.68,2.02-2.95,1.77-8.98-1.14-11.02-7.79-5.45-30.55-2.61-40.09-4.6-2.23-.91-3.07-7.36-3.26-9.8-2.6-32.53,6.9-76.34,19.86-106.21,4.03-9.29,19.76-33.55,20.12-40.97s-5.72-11.96-12.68-9.59c-3.74,1.28-6.01,6.46-8.82,4.3-4.94-3.79-10.07-31.72-10.49-38.52-1.25-20.03,5.4-72.43,30-77.09,21.71-4.11,56.42,6.16,77.03,14.06,8.78,3.37,29.93,15.49,37.41,15.38,6.29-.09,16.55-5.12,23.19-6.82,29.39-7.5,60.29-11.75,90.41-15.07ZM526.95,340.09c-13.15,13.17-9.32,50.27,12.14,52.64,33.99,3.76,30.9-53.3,8.78-57.78-7.4-1.5-15.47-.32-20.92,5.13ZM226.34,355.98c-22.83,3.86-25.71,62.46,8.65,58.64,28.5-3.17,26.98-64.67-8.65-58.64ZM391.39,398.03c-19.95,1.86-40.53,16.49-29.98,38.39s56.18,19.75,66.39-.99c11.78-23.91-15.29-39.38-36.41-37.41Z"/>
      <path class="st0" d="M401.83,787.5c-2.47-2.48-2.45-13.45-9.74-13.87-8.25-.47-8.4,10.59-11.39,14.48-2.55,3.32-73.62-1.28-83.65.66-33.21-2.99-68.8-.32-101.85-5.15-8.26-1.21-7.91-4.63-7.65-12.43,2.31-70.26,22.41-140.8,62.01-198.99,1.86-2.74,12.28-17.64,13.72-18.52s2.98-.95,4.65-.87c5.85.25,18.16,1.91,24.07,3.01,1.41.26,4.9,1.15,5.91,1.84,1.07.74,6.37,19.83,8.87,24.38,33.56,60.9,144.69,57.22,170.28-8.33,1.9-4.87,3.51-17.46,5.45-20.3,1.27-1.86,27.02-6.54,30.05-5.16,5.53,2.53,26.62,35.99,30.82,43.18,26.15,44.73,44.39,98.97,49.19,150.81.59,6.4,2.37,33.19.07,37.05-.68,1.15-2.23,2.16-3.59,2.41-5.17.95-13.48,1.53-18.99,2.01-38.14,3.36-76.66,3.29-115.03,3.97-15.68.28-32.22,2.43-48,1.08-1.55-.13-4.12-.17-5.22-1.28Z"/>
      <path class="st2" d="M583.4,805.03c3.26-.12,6.96-1.09,9.1,2.31,3.52,5.59-1.6,33.76-3.64,41.16-3.63,13.21-11.48,27.27-22.93,35.07-24.97,17.01-103.82,18.26-132.97,11.31-11.69-2.79-24.47-9.41-28.42-21.58-2.83-8.72-3.3-47.3-1.99-57.1.27-2.04.57-3.5,2.75-4.25l111.84-2.16c21.95-.6,44.36-3.97,66.26-4.75Z"/>
      <path class="st2" d="M192.29,806.93c5.53-1.66,21.13,1.43,27.82,1.8,51.74,2.82,103.65,2.7,155.54,3.46,2.69,1.11,3.61,2.12,4,5,1.38,10.22.91,37.33-.01,48.09-1.54,17.93-13.86,25.94-30.03,29.97-28.68,7.14-104.01,6.29-129.67-8.34-21.55-12.29-30.19-42.21-31.32-65.67-.18-3.79-.97-12.9,3.68-14.3Z"/>
      <path class="st0" d="M429.36,27c9.23-1.25,18.25-.14,26.62,3.87,14.03,6.71,37.6,35.82,42.4,50.6,1.65,5.09,2.58,15.05-5.22,14.28-1.74-.17-11.48-6.96-15.78-8.28-40.55-12.53-66.13,41.07-29.7,64.7,6.04,3.92,15.34,4.69,10.65,14.81-3.34,7.22-29.42,13.92-37.36,14.64-89.95,8.18-41.82-147.81,8.39-154.61Z"/>
      <path class="st2" d="M664.79,600.54l-60.78-88.81c-.91-2.69,1.27-4.51,1.62-7.46,1.2-10.25-4.76-15.78,3.45-26.55,8.54-11.2,20.75-12.94,31.53-3.49,4.43,3.89,4.84,8.26,11.4,9.69,5,1.09,12.6-1.67,19.08-1.16,18.2,1.42,35.57,14.11,41.55,31.44,9.83,28.46-5.64,54.19-26.02,73.05-3.42,3.16-17.6,15.77-21.82,13.29Z"/>
      <path class="st0" d="M639.18,221.32c-17.87,19.03-41.3,32.37-66.89,18.22-4.85-2.68-22.7-17.82-20.23-23.77.64-1.53,9.74-8.04,11.48-8.57,5.48-1.66,9.63.96,14.67,1.41,37.03,3.3,49.93-38.77,19.7-58.7-2.8-1.85-8.41-3.25-10.2-5.8s-3.85-12.61-2.6-15.36c2.71-5.96,26.46-10.61,32.99-11.01,71.46-4.41,55.29,67.13,21.07,103.57Z"/>
      <path class="st2" d="M124.31,608.88c1.16-.32,2.21-.32,3.24.37l55.63,44.44c.66,1.43.35,2.8.2,4.26-.89,8.64-7.02,25.05-9.29,34.78-1.11,4.72-3.16,21.23-5.54,23.46-2.74,2.57-14.46,5.18-18.47,5.53-43.41,3.88-74.82-27.77-56.97-70.97,3.19-7.73,24.28-39.95,31.2-41.88Z"/>
      <path class="st2" d="M630.6,95.74c-20.87-1.72-40.35,6.25-60.25,10.82-6.83-3.62-12.44-8.37-19.77-11.31-8.08-3.24-16.77-4.2-24.95-7.05l-14.03-31.46c21.24-9.54,42.61-20.45,65.79-24.72,9.95-1.83,23.87-4.71,31.75,2.66,13.1,12.25,19.38,43.65,21.46,61.05Z"/>
      <path class="st0" d="M492.95,122.09c17.15-16.18,48.28-15.12,64.16,2.64,29.67,33.18-6.35,91.65-51.19,72.19-28.9-12.54-35.34-53.71-12.97-74.83Z"/>
      <path class="st2" d="M591.83,640.49c-.89-.9-6.66-17.33-8.06-20.43-9.17-20.37-19.9-40.19-32.15-58.85-1.89-2.88-14.07-18.73-14.08-19.98-.02-1.69,1.17-2.03,2.34-2.71,4.54-2.61,15.05-5.09,20.7-7.3,3.69-1.44,17.27-8.44,19.52-8.58,1.46-.09,2.96-.1,3.98,1.12l61.62,90.49c.21,3.08-3.09,4.23-5.44,5.66-10.16,6.17-25.39,14.18-36.31,18.69-3.24,1.34-9.21,4.83-12.12,1.9Z"/>
      <path class="st2" d="M456.43,555.96c10.64-.43.17,16.45-3,21.1-25.81,37.91-94.89,38.86-123.8,4.14-2.61-3.14-13.34-19.13-9.08-22.03,1.31-.89,27.33.43,31.54.57,27.93.87,55.01,1.04,83-1.02,6.8-.5,14.74-2.5,21.34-2.76Z"/>
      <path class="st2" d="M231.33,551.92c2.33.08,2.75,2.02,1.83,3.86-16.09,23.09-28.45,48.36-40.19,73.88l-3.34-.45c-5.62-5.78-42.57-30.49-43.89-35.19-1.23-4.37,9.86-10.05,13.33-12.3,16.26-10.56,38.04-21.11,56.76-26.24,3.24-.89,12.87-3.64,15.5-3.55Z"/>
      <path class="st0" d="M476.47,107.86c.91,1.57-5.67,9.69-7.05,12.21-1.56,2.85-7.01,16.7-7.78,17.25-4.38,3.13-12.59-8.38-13.08-13.06-1.68-16.29,14.48-25.01,27.91-16.39Z"/>
      <path class="st0" d="M578.69,191.64c-1.48-2.15,8.14-19.05,8.1-23.21,1.84-4.15,6.34.7,7.82,2.8,8.52,12.12-3.18,24.44-15.91,20.41Z"/>
      <path class="st3" d="M391.39,398.03c21.12-1.97,48.19,13.5,36.41,37.41-10.21,20.74-56.23,22.09-66.39.99s10.04-36.53,29.98-38.39ZM389.36,413c-6.74.99-15.17,5.29-14.83,13.22.77,18.4,49.18,14.48,37.49-6.4-4.12-7.36-15.23-7.91-22.66-6.82Z"/>
      <path class="st3" d="M226.34,355.98c35.63-6.02,37.15,55.48,8.65,58.64-34.36,3.82-31.48-54.79-8.65-58.64Z"/>
      <path class="st3" d="M526.95,340.09c5.45-5.45,13.51-6.63,20.92-5.13,22.12,4.48,25.21,61.53-8.78,57.78-21.46-2.37-25.29-39.48-12.14-52.64Z"/>
      <path class="st1" d="M389.36,413c7.43-1.09,18.53-.54,22.66,6.82,11.69,20.88-36.72,24.79-37.49,6.4-.33-7.93,8.09-12.23,14.83-13.22Z"/>
    </g>
  </g>
</svg>