<?xml version="1.0" encoding="UTF-8"?>
<svg id="_Слой_1" data-name="Слой_1" xmlns="http://www.w3.org/2000/svg" version="1.1" viewBox="0 0 341.04 264.31">
  <!-- Generator: Adobe Illustrator 29.7.1, SVG Export Plug-In . SVG Version: 2.1.1 Build 8)  -->
  <defs>
    <style>
      .st0 {
        fill: #e31563;
      }

      .st1 {
        fill: #0e0709;
      }
    </style>
  </defs>
  <g id="_x37_NP34C">
    <g>
      <path class="st1" d="M80.9,24.22c-50.2,6.8-98.34,162.79-8.39,154.61,7.93-.72,34.01-7.42,37.36-14.64,4.69-10.13-4.61-10.9-10.65-14.81-36.43-23.63-10.85-77.23,29.7-64.7,4.29,1.33,14.03,8.11,15.78,8.28,7.8.77,6.87-9.19,5.22-14.28-4.79-14.78-28.37-43.89-42.4-50.6-8.37-4-17.39-5.12-26.62-3.87ZM309.13,230.96c-12.88,12.59-26.94,25.59-44.77,30.71-28.61,8.22-51.32-3.48-69.73-24.7-2.89-3.34-11.91-17.4-14.51-18.49-3.26-1.37-7.9-.07-11.46-.54-12.12-1.58-30.66-10-39.54-18.46-3.37-3.21-7.97-12.01-11.94-13.11-3.16-.87-13.08,5-16.77,6.35-8.08,2.94-18.25,6.52-26.78,7.22C3.02,205.71-10.86,139.05,7.14,83.96M128.02,105.08c-13.42-8.62-29.59.1-27.91,16.39.48,4.68,8.7,16.19,13.08,13.06.77-.55,6.22-14.4,7.78-17.25,1.37-2.52,7.95-10.64,7.05-12.21ZM144.5,119.31c-22.37,21.11-15.93,62.28,12.97,74.83,44.84,19.46,80.86-39.01,51.19-72.19-15.88-17.75-47.01-18.82-64.16-2.64ZM290.73,218.54c34.22-36.44,50.39-107.98-21.07-103.57-6.54.4-30.28,5.05-32.99,11.01-1.25,2.75.8,12.81,2.6,15.36s7.4,3.95,10.2,5.8c30.23,19.92,17.33,62-19.7,58.7-5.04-.45-9.19-3.07-14.67-1.41-1.74.53-10.85,7.04-11.48,8.57-2.47,5.95,15.38,21.09,20.23,23.77,25.59,14.15,49.02.8,66.89-18.22ZM230.24,188.86c12.73,4.03,24.43-8.29,15.91-20.41-1.48-2.1-5.98-6.95-7.82-2.8.04,4.16-9.58,21.05-8.1,23.21Z"/>
      <path class="st1" d="M306.64,98.96l-24.49-6c-20.87-1.72-40.35,6.25-60.25,10.82-6.83-3.62-12.44-8.37-19.77-11.31-8.08-3.24-16.77-4.2-24.95-7.05l-14.03-31.46-13.51-20.25C128.46,8.64,95.24-9.9,62.47,5.78c-12,5.74-25.24,19.38-32.73,30.27-4.57,6.64-7.69,14.38-12.31,20.69l-10.28,27.23c-18,55.09-4.12,121.75,66.49,115.98,8.53-.7,18.7-4.28,26.78-7.22,3.7-1.35,13.62-7.22,16.77-6.35,3.97,1.1,8.57,9.9,11.94,13.11,8.88,8.46,27.42,16.88,39.54,18.46,3.56.46,8.2-.83,11.46.54,2.6,1.09,11.62,15.16,14.51,18.49,18.41,21.22,41.11,32.92,69.73,24.7,17.83-5.12,31.89-18.12,44.77-30.71l15.36-20.51c23.52-35.58,25.62-90.67-17.85-111.49Z"/>
      <path class="st0" d="M80.9,24.22c9.23-1.25,18.25-.14,26.62,3.87,14.03,6.71,37.6,35.82,42.4,50.6,1.65,5.09,2.58,15.05-5.22,14.28-1.74-.17-11.48-6.96-15.78-8.28-40.55-12.53-66.13,41.07-29.7,64.7,6.04,3.92,15.34,4.69,10.65,14.81-3.34,7.22-29.42,13.92-37.36,14.64C-17.43,187.01,30.7,31.01,80.9,24.22Z"/>
      <path class="st0" d="M290.73,218.54c-17.87,19.03-41.3,32.37-66.89,18.22-4.85-2.68-22.7-17.82-20.23-23.77.64-1.53,9.74-8.04,11.48-8.57,5.48-1.66,9.63.96,14.67,1.41,37.03,3.3,49.93-38.77,19.7-58.7-2.8-1.85-8.41-3.25-10.2-5.8s-3.85-12.61-2.6-15.36c2.71-5.96,26.46-10.61,32.99-11.01,71.46-4.41,55.29,67.13,21.07,103.57Z"/>
      <path class="st0" d="M144.5,119.31c17.15-16.18,48.28-15.12,64.16,2.64,29.67,33.18-6.35,91.65-51.19,72.19-28.9-12.54-35.34-53.71-12.97-74.83Z"/>
      <path class="st0" d="M128.02,105.08c.91,1.57-5.67,9.69-7.05,12.21-1.56,2.85-7.01,16.7-7.78,17.25-4.38,3.13-12.59-8.38-13.08-13.06-1.68-16.29,14.48-25.01,27.91-16.39Z"/>
      <path class="st0" d="M230.24,188.86c-1.48-2.15,8.14-19.05,8.1-23.21,1.84-4.15,6.34.7,7.82,2.8,8.52,12.12-3.18,24.44-15.91,20.41Z"/>
    </g>
  </g>
</svg>