<?xml version="1.0" encoding="UTF-8"?>
<svg id="_Слой_1" data-name="Слой_1" xmlns="http://www.w3.org/2000/svg" version="1.1" viewBox="0 0 492.29 576.97">
  <!-- Generator: Adobe Illustrator 29.7.1, SVG Export Plug-In . SVG Version: 2.1.1 Build 8)  -->
  <defs>
    <style>
      .st0 {
        fill: #fdbb08;
      }

      .st1 {
        fill: #fdbb05;
      }
    </style>
  </defs>
  <g id="XN7yuz">
    <g>
      <path class="st1" d="M427.92,374.98c.74,1.21.69,7.87-1.39,8.76-32.48,9.15-67.59,17.99-95.75,37.25-50.73,34.72-62.26,97.16-74.38,153.56-1.81,3.7-10.25,3.23-10.63-1.93-10.88-49.52-21.79-108.27-62.21-142.79-29.47-25.16-69.72-35.32-106.19-45.81-5.17-2.55-4.59-8.41.72-10.71,11.92-5.16,31.38-8.26,44.95-13.05,37.46-13.22,67.64-30.82,88.06-65.94s26.67-73.6,35.21-110.79c1.43-2.81,5.79-3.66,8.36-1.79,2.85,2.07,6.4,24.98,7.71,30.29,22.32,90.18,43.3,124.92,134.19,153.81,4.24,1.35,30.5,7.75,31.35,9.15Z"/>
      <path class="st0" d="M92.52,150.41c6.25,7.97,18.27,14.26,27.62,17.85,4.01,1.54,19.78,5.33,21.36,6.44,1.15.8.54,2.29.63,3.48-16.66,5.51-36.36,9.95-48.56,23.62-8.7,9.75-13.76,25.45-17.02,37.98-1.18,4.52-.92,17.4-6.88,16.09-4.43-15.23-6.52-31.53-14.79-45.36-9.21-15.41-21.39-21.44-37.84-27.16-2.61-.91-16.3-3.97-16.85-4.64-.47-.57.05-2.37-.17-3.34,13.61-4.42,28.02-7.85,39.96-16.14,20.25-14.05,23.6-39.36,29.69-61.47,1.33,0,3.03-.27,3.95,1.02s3.88,18.38,4.94,22.05c2.87,9.89,7.58,21.47,13.94,29.59Z"/>
      <path class="st0" d="M448.09,127.81c.48.45,1.84,10.78,2.49,13.02,4.3,14.83,10.1,24.98,24.83,31.17,4.47,1.88,12.86,3.04,16,4.81,1.09.61.98,1.65.69,2.51s-14.71,4.7-17.22,5.8c-10.81,4.73-17.33,11.43-21.57,22.43-1.44,3.74-4.48,20.48-5.29,21.21-.43.38-2.9-.12-3.93.07-2.22-17.4-7.13-34.22-23.96-42.55-3.83-1.9-19.45-5.62-20.02-6.5-.14-.22-.12-2.82-.03-2.94.58-.7,14.05-3.73,17.36-5.16,11.98-5.18,18.06-12.47,22.4-24.6,1.28-3.58,3.66-16.69,4.74-18.26.72-1.05,2.99-1.48,3.49-1Z"/>
      <path class="st0" d="M289.06,34.86c.14.22.12,2.82.03,2.94-.44.54-10.41,2.66-13.38,4.14-7.88,3.94-11.21,8.76-14.08,16.92-.79,2.26-2.96,13.69-4.05,13.96-1.94.48-1.49-.8-1.94-2.01-6.06-16.1-2.08-21.38-20.19-29.86-2.68-1.25-11.3-2.84-11.37-5.63-.02-.75,11.61-3.48,14.23-4.79,6.87-3.46,10.44-7.56,13.27-14.73,1.04-2.64,4.4-22.52,7.47-13.44,4.07,12.05,2.46,20.98,15.99,28.01,2.83,1.47,13.63,3.87,14.03,4.49Z"/>
    </g>
  </g>
</svg>