<?xml version="1.0" encoding="UTF-8"?>
<svg id="_Слой_1" data-name="Слой_1" xmlns="http://www.w3.org/2000/svg" version="1.1" viewBox="0 0 694.93 597.51">
  <!-- Generator: Adobe Illustrator 29.7.1, SVG Export Plug-In . SVG Version: 2.1.1 Build 8)  -->
  <defs>
    <style>
      .st0 {
        fill: #96ff00;
      }
    </style>
  </defs>
  <path class="st0" d="M686.47,218.5h-207.91c-5.4,0-9.41-4.99-8.24-10.26l43.69-197.94c1.89-8.54-8.87-13.96-14.61-7.36l-185.14,212.67c-1.6,1.84-3.93,2.9-6.37,2.9H76.8c-7.15,0-11.06,8.33-6.49,13.84l107.42,129.31c2.64,3.18,2.59,7.82-.13,10.94L2.14,574.14c-6.12,7.03,1.99,17.33,10.26,13.03l240.2-124.97c3.52-1.83,7.85-.96,10.39,2.09l108.13,130.17c4.49,5.4,13.22,3.28,14.74-3.57l48.53-219.86c.54-2.44,2.13-4.52,4.35-5.67l251.63-130.92c7.84-4.08,4.94-15.93-3.9-15.93Z"/>
</svg>